<svg xmlns="http://www.w3.org/2000/svg" width="3539" height="3325" viewBox="0 0 3539 3325" version="1.1"><path d="M 0 527.335 C 0 527.520, 23.228 567.907, 51.617 617.085 C 80.007 666.263, 148.695 785.250, 204.259 881.500 C 259.822 977.750, 328.557 1096.775, 357.004 1146 C 385.451 1195.225, 423.253 1260.700, 441.010 1291.500 C 458.766 1322.300, 506.689 1405.325, 547.505 1476 C 713.863 1764.054, 879.534 2050.989, 1129.221 2483.500 C 1282.575 2749.143, 1482.099 3094.702, 1564.490 3237.350 C 1592.079 3285.118, 1615.051 3324.210, 1615.537 3324.222 C 1616.023 3324.234, 1668.275 3234.416, 1731.653 3124.628 L 1846.884 2925.012 1829.086 2894.256 C 1819.298 2877.340, 1775.958 2802.300, 1732.776 2727.500 C 1689.593 2652.700, 1605.543 2507.125, 1545.998 2404 C 1432.126 2206.788, 1371.498 2101.772, 1245.792 1884 C 1203.725 1811.125, 1148.988 1716.310, 1124.154 1673.301 C 1099.319 1630.291, 1079 1594.855, 1079 1594.554 C 1079 1594.253, 1147.912 1593.892, 1232.138 1593.753 L 1385.275 1593.500 1448.204 1484.500 C 1482.815 1424.550, 1534.728 1334.630, 1563.566 1284.678 C 1592.405 1234.725, 1616 1193.663, 1616 1193.429 C 1616 1193.194, 1442.873 1192.889, 1231.273 1192.751 L 846.545 1192.500 770.305 1060.500 L 694.065 928.500 1078.115 928 L 1462.165 927.500 1501.155 860 C 1522.600 822.875, 1557.158 763.025, 1577.951 727 C 1598.744 690.975, 1633.136 631.410, 1654.378 594.634 C 1675.620 557.857, 1693 527.595, 1693 527.384 C 1693 527.173, 1312.075 527, 846.500 527 C 380.925 527, 0 527.151, 0 527.335 M 1844.625 529.250 C 1841.495 534.204, 1615 927.014, 1615 927.488 C 1615 927.768, 1822.423 928.111, 2075.940 928.249 L 2536.880 928.500 2505.113 983.500 C 2487.641 1013.750, 2433.600 1107.350, 2385.022 1191.500 C 2336.444 1275.650, 2249.809 1425.725, 2192.500 1525 C 2135.191 1624.275, 2065.561 1744.875, 2037.767 1793 C 1666.580 2435.706, 1691.583 2392.019, 1693.275 2394.920 C 1694.899 2397.705, 1877.054 2713.221, 1905.339 2762.243 C 1914.777 2778.602, 1922.775 2791.990, 1923.112 2791.993 C 1923.449 2791.997, 1951.191 2744.412, 1984.762 2686.250 C 2018.333 2628.088, 2086.720 2509.625, 2136.734 2423 C 2186.748 2336.375, 2280.011 2174.825, 2343.985 2064 C 2407.959 1953.175, 2486.945 1816.375, 2519.511 1760 C 2587.865 1641.670, 2621.678 1583.109, 2736.324 1384.500 C 2782.042 1305.300, 2859.994 1170.300, 2909.551 1084.500 L 2999.655 928.500 3153.577 928.241 L 3307.500 927.982 3309.071 925.241 C 3311.203 921.520, 3419.048 734.757, 3484.663 621.156 C 3513.998 570.367, 3538 528.405, 3538 527.906 C 3538 527.365, 3196.971 527, 2692.023 527 L 1846.046 527 1844.625 529.250 M 1782 1170.251 C 1702.606 1307.998, 1651.081 1397.275, 1502.522 1654.500 C 1437.722 1766.700, 1384.698 1858.950, 1384.691 1859.500 C 1384.684 1860.050, 1401.446 1889.525, 1421.939 1925 C 1442.432 1960.475, 1494.324 2050.364, 1537.254 2124.753 C 1604.319 2240.963, 1615.477 2259.758, 1616.509 2258.253 C 1617.169 2257.289, 1669.916 2166.050, 1733.724 2055.500 C 1797.532 1944.950, 1901.837 1764.275, 1965.513 1654 C 2029.188 1543.725, 2130.103 1368.900, 2189.769 1265.500 C 2249.435 1162.100, 2300.445 1073.774, 2303.126 1069.219 C 2305.807 1064.665, 2308 1060.727, 2308 1060.469 C 2308 1060.211, 2203.938 1060.018, 2076.750 1060.040 L 1845.500 1060.080 1782 1170.251" stroke="none" fill="#bc0404" fill-rule="evenodd"/><path d="M 1654.500 1.104 C 1484.501 15.203, 1333.649 52.248, 1182.311 117.061 C 1031.063 181.835, 895.096 268.567, 772.646 378.385 L 755.793 393.500 905.368 393.753 L 1054.943 394.007 1067.222 386.197 C 1156.066 329.691, 1255.049 282.417, 1353.500 249.471 C 1460.268 213.742, 1567.761 192.563, 1683.585 184.436 C 1713.992 182.302, 1792.161 181.451, 1823.972 182.908 C 1920.778 187.342, 2006.401 200.048, 2097.500 223.498 C 2224.620 256.220, 2350.238 310.408, 2464.197 381.681 L 2483.894 394 2632.947 394 C 2714.926 394, 2782 393.807, 2782 393.571 C 2782 392.208, 2749.486 363.291, 2724.999 342.875 C 2525.759 176.762, 2288.256 65.943, 2033 19.988 C 2006.101 15.145, 1970.616 9.994, 1940.500 6.559 C 1914.997 3.651, 1873.176 0, 1865.371 0 L 1860 0 1860 44.500 L 1860 89 1768.500 89 L 1677 89 1677 44.500 L 1677 0 1670.750 0.137 C 1667.313 0.213, 1660 0.648, 1654.500 1.104 M 3053.190 1101.450 L 3029.880 1141.869 3033.388 1154.684 C 3038.366 1172.875, 3047.144 1210.970, 3051.893 1235 C 3088.636 1420.903, 3084.379 1615.154, 3039.523 1799.500 C 2990.206 2002.183, 2891.949 2191.130, 2753.666 2349.199 C 2663.458 2452.314, 2561.602 2537.668, 2442.365 2610.066 C 2388.604 2642.709, 2314.824 2679.302, 2253 2703.988 C 2209.094 2721.519, 2140.238 2744.295, 2104.133 2753.229 L 2098.766 2754.558 2046.832 2844.529 C 2018.269 2894.013, 1990.810 2941.602, 1985.814 2950.282 C 1980.818 2958.961, 1976.988 2966.321, 1977.303 2966.636 C 1977.965 2967.298, 2009.670 2962.472, 2038 2957.396 C 2075.917 2950.602, 2130.488 2938.178, 2167 2928.026 C 2376.496 2869.782, 2568.832 2767.939, 2734.500 2627.534 C 2817.487 2557.202, 2898.830 2471.016, 2961.991 2386.500 C 2983.862 2357.234, 3014.716 2313.276, 3013.859 2312.603 C 3013.662 2312.448, 2996.295 2302.462, 2975.268 2290.411 C 2948.293 2274.952, 2937.185 2268.087, 2937.545 2267.097 C 2938.325 2264.951, 3026.143 2112.671, 3027.399 2111.287 C 3028.242 2110.357, 3037.404 2115.214, 3066.500 2132.015 C 3087.400 2144.083, 3104.827 2153.967, 3105.228 2153.978 C 3105.628 2153.990, 3108.256 2149.162, 3111.067 2143.250 C 3168.114 2023.287, 3204.478 1917.302, 3229.353 1798.500 C 3239.263 1751.171, 3244.453 1720.191, 3250.459 1672.500 C 3265.327 1554.463, 3265.340 1424.648, 3250.498 1306.395 C 3240.567 1227.280, 3226.815 1158.247, 3206.742 1086.750 L 3199.512 1061 3138.006 1061.016 L 3076.500 1061.031 3053.190 1101.450 M 289 1296.354 C 289 1296.785, 287.657 1309.144, 286.016 1323.819 C 275.889 1414.358, 274.265 1517.088, 281.532 1607.500 C 294.946 1774.376, 333.930 1930.458, 400.797 2085 C 413.184 2113.628, 432.793 2155.004, 433.969 2154.997 C 434.261 2154.995, 451.600 2145.117, 472.500 2133.047 C 501.603 2116.240, 510.764 2111.382, 511.628 2112.301 C 513.058 2113.820, 602.011 2267.966, 601.967 2268.847 C 601.949 2269.206, 584.849 2279.348, 563.967 2291.384 C 543.085 2303.420, 526 2313.688, 526 2314.202 C 526 2315.260, 540.501 2336.625, 555.387 2357.500 C 650.373 2490.699, 773.734 2613.364, 908 2708.122 C 994.479 2769.154, 1081.916 2818.117, 1181.294 2861.162 C 1188.881 2864.448, 1195.511 2866.994, 1196.027 2866.819 C 1196.542 2866.643, 1157.228 2797.706, 1108.661 2713.625 L 1020.358 2560.750 1013.929 2556.184 C 855.443 2443.636, 724.131 2297.766, 628.479 2128 C 616.234 2106.267, 591.803 2058.202, 581.087 2034.764 C 521.502 1904.439, 485.644 1774.362, 469.613 1630.392 L 466.373 1601.285 379.047 1449.892 C 331.018 1366.627, 291.109 1297.841, 290.361 1297.036 C 289.612 1296.230, 289 1295.924, 289 1296.354" stroke="none" fill="#0404b4" fill-rule="evenodd"/></svg>