<svg xmlns="http://www.w3.org/2000/svg" version="1.1" xmlns:xlink="http://www.w3.org/1999/xlink" xmlns:svgjs="http://svgjs.dev/svgjs" width="2000" height="1500" viewBox="0 0 2000 1500"><rect width="2000" height="1500" fill="#dfdad6"></rect><g transform="matrix(0.75,0,0,0.75,249.090909090909,307.99936592351037)"><svg viewBox="0 0 396 247" data-background-color="#dfdad6" preserveAspectRatio="xMidYMid meet" height="1247" width="2000" xmlns="http://www.w3.org/2000/svg" xmlns:xlink="http://www.w3.org/1999/xlink"><g id="tight-bounds" transform="matrix(1,0,0,1,0.2400000000000091,-0.09999999999999432)"><svg viewBox="0 0 395.52 247.2" height="247.2" width="395.52"><g><svg></svg></g><g><svg viewBox="0 0 395.52 247.2" height="247.2" width="395.52"><g transform="matrix(1,0,0,1,92.45883744911805,47.215199999999996)"><svg viewBox="0 0 210.60232510176388 152.7696" height="152.7696" width="210.60232510176388"><g><svg viewBox="0 0 210.60232510176388 152.7696" height="152.7696" width="210.60232510176388"><g><svg viewBox="0 0 210.60232510176388 152.7696" height="152.7696" width="210.60232510176388"><g id="textblocktransform"><svg viewBox="0 0 210.60232510176388 152.7696" height="152.7696" width="210.60232510176388" id="textblock"><g><svg viewBox="0 0 210.60232510176388 152.7696" height="152.7696" width="210.60232510176388"><g transform="matrix(1,0,0,1,0,0)"><svg width="210.60232510176388" viewBox="0.2 -36.8 50.8 36.849999999999994" height="152.7696" data-palette-color="#e33e33"><path d="M6.15-1.2Q4.75-0.95 3.1-0.6 1.45-0.25 0.2 0.05L0.2 0.05Q0.8-2.1 1.38-4.78 1.95-7.45 2.53-10.4 3.1-13.35 3.63-16.38 4.15-19.4 4.65-22.2L4.65-22.2Q5.7-28.85 6.75-35.95L6.75-35.95 23.5-36.8 22.05-30.65 14.2-30.65 12.65-21.75Q14.2-21.8 15.6-21.8L15.6-21.8Q16.75-21.8 17.95-21.8 19.15-21.8 19.8-21.85L19.8-21.85Q19.65-20.45 19.43-19.1 19.2-17.75 19-16.4L19-16.4Q18.35-16.4 17.15-16.43 15.95-16.45 14.68-16.5 13.4-16.55 11.8-16.6L11.8-16.6 9.5-1.85Q7.8-1.55 6.15-1.2L6.15-1.2ZM25.55-1Q25.1-1 23.77-0.88 22.45-0.75 21.05-0.58 19.65-0.4 18.52-0.25 17.4-0.1 17.3-0.05L17.3-0.05Q17.8-2.2 18.32-4.83 18.85-7.45 19.4-10.33 19.95-13.2 20.45-16.15 20.95-19.1 21.4-21.85L21.4-21.85Q22.45-28.25 23.5-35L23.5-35 31.3-36.25Q30.15-29.55 29.05-23.1L29.05-23.1Q28.6-20.35 28.12-17.4 27.65-14.45 27.17-11.55 26.7-8.65 26.3-5.93 25.9-3.2 25.55-1L25.55-1ZM40.64-1.35L31.64 0.05Q32.8-5.45 33.84-10.8L33.84-10.8Q34.3-13.05 34.74-15.5 35.2-17.95 35.62-20.33 36.05-22.7 36.37-24.93 36.7-27.15 36.95-29L36.95-29Q35.8-29.15 34.62-29.1 33.45-29.05 32.3-29.4L32.3-29.4Q32.34-30.2 32.34-31.25 32.34-32.3 32.39-33.35L32.39-33.35Q32.45-34.5 32.49-35.8L32.49-35.8Q33.8-35.7 35.09-35.65 36.39-35.6 37.7-35.6L37.7-35.6Q40.25-35.6 42.62-35.73 45-35.85 47.02-36.02 49.05-36.2 51-36.45L51-36.45 50.45-33.75Q50.2-32.6 49.97-31.4 49.75-30.2 49.55-29.35L49.55-29.35Q48.45-29.05 47.32-28.93 46.2-28.8 45.09-28.6L45.09-28.6Q44.75-26.9 44.34-24.83 43.95-22.75 43.57-20.53 43.2-18.3 42.84-16 42.5-13.7 42.14-11.6L42.14-11.6Q41.34-6.65 40.64-1.35L40.64-1.35Z" opacity="1" transform="matrix(1,0,0,1,0,0)" fill="#e33e33" class="wordmark-text-0" data-fill-palette-color="primary" id="text-0"></path></svg></g></svg></g></svg></g></svg></g><g></g></svg></g></svg></g><g><path d="M158.305 11.15A105.301 105.301 0 0 1 237.215 11.15L223.438 11.15A91.524 91.524 0 0 0 172.082 11.15L158.305 11.15M158.305 236.05A105.301 105.301 0 0 0 237.215 236.05L223.438 236.05A91.524 91.524 0 0 1 172.082 236.05L158.305 236.05" fill="#e33e33" stroke="transparent" data-fill-palette-color="tertiary"></path></g></svg></g><defs></defs></svg><rect width="395.52" height="247.2" fill="none" stroke="none" visibility="hidden"></rect></g></svg></g></svg>